<svg width="49" height="49" viewBox="0 0 49 49" fill="none" xmlns="http://www.w3.org/2000/svg">
<g clip-path="url(#clip0_21_599)">
<path d="M43.0179 10.678C39.7308 10.3513 36.4437 10.1063 33.1362 9.92254V9.90212L32.6871 7.24796C32.3808 5.36962 31.9316 2.55212 27.1541 2.55212H21.805C17.0479 2.55212 16.5987 5.24712 16.2721 7.22754L15.8433 9.84087C13.9446 9.96337 12.0458 10.0859 10.1471 10.2696L5.98206 10.678C5.12456 10.7596 4.51206 11.515 4.59373 12.3521C4.67539 13.1892 5.41039 13.8017 6.26789 13.72L10.4329 13.3117C21.1312 12.25 31.9112 12.6584 42.7321 13.7405C42.7933 13.7405 42.8341 13.7405 42.8954 13.7405C43.6712 13.7405 44.345 13.1484 44.4266 12.3521C44.4879 11.515 43.8754 10.7596 43.0179 10.678Z" fill="white"/>
<path opacity="0.3991" d="M39.2613 16.6191C38.7713 16.1087 38.0976 15.8229 37.4034 15.8229H11.5967C10.9026 15.8229 10.2084 16.1087 9.73881 16.6191C9.26923 17.1295 9.00381 17.8237 9.04464 18.5383L10.3105 39.4858C10.5351 42.5891 10.8209 46.4683 17.9463 46.4683H31.0538C38.1792 46.4683 38.4651 42.6095 38.6896 39.4858L39.9555 18.5587C39.9963 17.8237 39.7309 17.1295 39.2613 16.6191Z" fill="white"/>
<path fill-rule="evenodd" clip-rule="evenodd" d="M19.5592 34.7083C19.5592 33.8626 20.2448 33.177 21.0905 33.177H27.8892C28.7349 33.177 29.4205 33.8626 29.4205 34.7083C29.4205 35.5539 28.7349 36.2395 27.8892 36.2395H21.0905C20.2448 36.2395 19.5592 35.5539 19.5592 34.7083Z" fill="white"/>
<path fill-rule="evenodd" clip-rule="evenodd" d="M17.8646 26.5416C17.8646 25.6959 18.5502 25.0104 19.3959 25.0104H29.6042C30.4499 25.0104 31.1355 25.6959 31.1355 26.5416C31.1355 27.3873 30.4499 28.0729 29.6042 28.0729H19.3959C18.5502 28.0729 17.8646 27.3873 17.8646 26.5416Z" fill="white"/>
</g>
<defs>
<clipPath id="clip0_21_599">
<rect width="49" height="49" fill="white"/>
</clipPath>
</defs>
</svg>
